<svg xmlns="http://www.w3.org/2000/svg" viewBox="0 0 1000 640" fill="none" role="img" aria-label="Web dashboard demo preview">
  <rect width="1000" height="640" fill="#eef3fb"/>
  <!-- sidebar -->
  <rect x="0" y="0" width="210" height="640" fill="#0b1f4d"/>
  <circle cx="46" cy="48" r="14" fill="#3aa0ee"/>
  <rect x="70" y="40" width="86" height="16" rx="8" fill="#ffffff" opacity="0.85"/>
  <rect x="34" y="120" width="142" height="14" rx="7" fill="#3aa0ee" opacity="0.9"/>
  <rect x="34" y="160" width="120" height="12" rx="6" fill="#ffffff" opacity="0.35"/>
  <rect x="34" y="196" width="132" height="12" rx="6" fill="#ffffff" opacity="0.35"/>
  <rect x="34" y="232" width="104" height="12" rx="6" fill="#ffffff" opacity="0.35"/>
  <rect x="34" y="268" width="120" height="12" rx="6" fill="#ffffff" opacity="0.35"/>
  <!-- topbar -->
  <rect x="210" y="0" width="790" height="74" fill="#ffffff"/>
  <rect x="250" y="30" width="180" height="16" rx="8" fill="#0b1f4d" opacity="0.85"/>
  <rect x="820" y="24" width="140" height="28" rx="14" fill="#1f7fd6"/>
  <!-- stat cards -->
  <g>
    <rect x="250" y="110" width="220" height="120" rx="18" fill="#ffffff"/>
    <rect x="276" y="136" width="80" height="12" rx="6" fill="#0b1f4d" opacity="0.4"/>
    <rect x="276" y="160" width="120" height="26" rx="8" fill="#1f7fd6"/>
    <rect x="276" y="200" width="100" height="10" rx="5" fill="#0ea5e0" opacity="0.6"/>
  </g>
  <g>
    <rect x="490" y="110" width="220" height="120" rx="18" fill="#ffffff"/>
    <rect x="516" y="136" width="80" height="12" rx="6" fill="#0b1f4d" opacity="0.4"/>
    <rect x="516" y="160" width="120" height="26" rx="8" fill="#2563eb"/>
    <rect x="516" y="200" width="90" height="10" rx="5" fill="#0ea5e0" opacity="0.6"/>
  </g>
  <g>
    <rect x="730" y="110" width="220" height="120" rx="18" fill="#ffffff"/>
    <rect x="756" y="136" width="80" height="12" rx="6" fill="#0b1f4d" opacity="0.4"/>
    <rect x="756" y="160" width="120" height="26" rx="8" fill="#0ea5e0"/>
    <rect x="756" y="200" width="110" height="10" rx="5" fill="#1f7fd6" opacity="0.6"/>
  </g>
  <!-- chart card -->
  <rect x="250" y="258" width="460" height="330" rx="18" fill="#ffffff"/>
  <rect x="278" y="288" width="140" height="14" rx="7" fill="#0b1f4d" opacity="0.5"/>
  <rect x="288" y="520" width="44" height="40" rx="8" fill="#1f7fd6" opacity="0.55"/>
  <rect x="348" y="470" width="44" height="90" rx="8" fill="#1f7fd6" opacity="0.7"/>
  <rect x="408" y="430" width="44" height="130" rx="8" fill="#2563eb" opacity="0.7"/>
  <rect x="468" y="380" width="44" height="180" rx="8" fill="#2563eb"/>
  <rect x="528" y="420" width="44" height="140" rx="8" fill="#0ea5e0" opacity="0.8"/>
  <rect x="588" y="350" width="44" height="210" rx="8" fill="#1f7fd6"/>
  <!-- list card -->
  <rect x="730" y="258" width="220" height="330" rx="18" fill="#ffffff"/>
  <circle cx="762" cy="300" r="12" fill="#3aa0ee"/>
  <rect x="786" y="294" width="120" height="12" rx="6" fill="#0b1f4d" opacity="0.4"/>
  <circle cx="762" cy="346" r="12" fill="#2563eb"/>
  <rect x="786" y="340" width="100" height="12" rx="6" fill="#0b1f4d" opacity="0.35"/>
  <circle cx="762" cy="392" r="12" fill="#0ea5e0"/>
  <rect x="786" y="386" width="130" height="12" rx="6" fill="#0b1f4d" opacity="0.35"/>
  <circle cx="762" cy="438" r="12" fill="#1f7fd6"/>
  <rect x="786" y="432" width="90" height="12" rx="6" fill="#0b1f4d" opacity="0.35"/>
  <circle cx="762" cy="484" r="12" fill="#3aa0ee"/>
  <rect x="786" y="478" width="115" height="12" rx="6" fill="#0b1f4d" opacity="0.35"/>
  <!-- demo badge -->
  <rect x="820" y="600" width="150" height="28" rx="14" fill="#0b1f4d" opacity="0.08"/>
  <text x="895" y="619" font-family="sans-serif" font-size="14" font-weight="700" fill="#0b1f4d" opacity="0.5" text-anchor="middle">DEMO PREVIEW</text>
</svg>
